<svg version="1" xmlns="http://www.w3.org/2000/svg" width="341.333" height="341.333" viewBox="0 0 256.000000 256.000000"><path d="M43 36.2c-3.3 1.7-5.1 3.5-6.8 6.8-2.1 4.3-2.2 5.5-2 22.9.3 16.2.5 18.5 2.1 19.5 1.2.8 2.2.8 3.5 0 1.5-1 1.8-3.4 2.2-19.5.3-10.1.9-19.1 1.3-20 1.8-3.6 5-3.9 43.2-3.9H124v82H42.1l-.3-15.6c-.3-13.7-.5-15.8-2-16.8-1.3-.8-2.3-.8-3.5 0-1.7 1-1.8 5.1-2.1 58.8-.2 55.3-.1 58 1.7 62.2 2.1 4.7 6.4 8 11.9 9 3.8.7 6.4-1 6-3.9-.3-2.1-1.3-2.8-6.4-4.7-1.7-.6-3.6-2.3-4.3-3.6-.7-1.7-1.1-14.2-1.1-39.9V132h82v82l-29.1.2c-26.5.3-29.3.5-30.3 2-.8 1.3-.8 2.3 0 3.5 1 1.7 5.8 1.8 72.5 2.1l71.4.2 4.5-2.2c3.3-1.7 5.1-3.5 6.8-6.8 2-4.1 2.2-5.7 2.2-23.1 0-20.1-.3-21.4-5.2-20.7-2.3.3-2.3.4-2.8 20.1l-.5 19.9-2.8 2.4-2.8 2.4H132v-82h81.9l.3 5.1c.3 5.9 2.5 8.2 5.6 6.3 1.6-1 1.7-4.6 2-48.5l.2-47.4-2.2-4.5c-1.7-3.3-3.5-5.1-6.8-6.8-4.4-2.2-5.2-2.2-31.4-2-24.3.3-27 .5-28 2-.8 1.3-.8 2.3 0 3.5 1 1.6 3.8 1.8 28.8 2.3 27.7.5 27.8.5 29.7 2.9 1.8 2.2 1.9 4.4 1.9 40.7V124h-82V42h4.4c2.7 0 5.1-.6 6-1.5 1.5-1.6 1.1-4.4-.8-5.7-.6-.4-22-.8-47.6-.8-46.3 0-46.6 0-51 2.2z"/><path d="M149.5 60c-2.8 3.1-1.2 6.2 8.2 14.9l8.7 8.1-9.2 9.3c-5 5.1-9.2 9.9-9.2 10.8 0 2.1 3.2 4.9 5.6 4.9 1.1 0 5.5-3.9 10.6-9.3l8.7-9.2 9.3 9.2c5.1 5.1 10 9.3 10.9 9.3 2.6 0 5.2-3.6 4.5-6.4-.3-1.3-4.5-6.1-9.3-10.5l-8.7-8.1 9.2-9.3c5-5.1 9.2-9.9 9.2-10.8 0-2.6-3.6-5.2-6.4-4.5-1.3.3-6.1 4.5-10.5 9.3l-8.1 8.7-9.3-9.2c-5.1-5-9.9-9.2-10.8-9.2-.9 0-2.4.9-3.4 2zM59.2 79.2c-.7.7-1.2 2.4-1.2 3.8s.5 3.1 1.2 3.8c1.7 1.7 45.9 1.7 47.6 0 1.5-1.5 1.5-6.1 0-7.6-1.7-1.7-45.9-1.7-47.6 0zM79.6 149.6c-1.2 1.2-1.6 3.6-1.6 10v8.4h-8.4c-8.9 0-11.6 1.1-11.6 5s2.7 5 11.6 5H78v8.4c0 8.9 1.1 11.6 5 11.6s5-2.7 5-11.6V178h8.4c8.9 0 11.6-1.1 11.6-5s-2.7-5-11.6-5H88v-8.4c0-8.9-1.1-11.6-5-11.6-1 0-2.6.7-3.4 1.6zM214.7 148.7c-.4.3-.7 3.2-.7 6.3 0 6.9 1.6 8.9 5.5 7.2 2.2-1 2.5-1.8 2.5-6.5 0-2.9-.5-5.8-1.2-6.5-1.3-1.3-5-1.6-6.1-.5zM149.2 159.2c-.7.7-1.2 2.4-1.2 3.8 0 4.8.8 5 25 5s25-.2 25-5c0-1.4-.5-3.1-1.2-3.8-1.7-1.7-45.9-1.7-47.6 0zM149.2 179.2c-.7.7-1.2 2.4-1.2 3.8 0 4.8.8 5 25 5s25-.2 25-5c0-1.4-.5-3.1-1.2-3.8-1.7-1.7-45.9-1.7-47.6 0z"/></svg>